<svg width="30" height="30" xmlns="http://www.w3.org/2000/svg" version="1.0" viewBox="0 0 400 225"><path fill="#FFF" d="M116.6 29.6c-2.3 2.3-2 4.4 1.8 10.6 10.2 17.1 17.7 31.1 17 31.7-.5.4-4 2.8-7.9 5.4-8.8 5.8-17.7 13.6-16.9 14.8.3.5 0 .8-.8.7-.7-.2-1.2.3-1 1 .1.8-.2 1.1-.7.8-1.1-.7-7.7 6.6-14.3 15.9-7.8 11.1-17.7 32.8-16.4 36.2.3.8.1 1.1-.4.8-.6-.3-1-.2-1 .3 0 .4-.9 5.1-2 10.2s-2 10.6-2 12.2v2.8h256v-3.8c0-2.1-.9-8.1-2-13.2s-2-9.5-2-9.7c0-.2-.5-.1-1.2.3s-.8.3-.4-.4c.9-1.4-.4-6.3-1.4-5.7-.5.3-.6-.3-.3-1.3.6-2.5-10.6-24.3-16.6-32.3-9.2-12.1-20.5-22.7-33.3-31.1-7.1-4.7-7.1-4.4-2.5-12 1.6-2.6 2.5-5.3 2.1-5.9-.4-.7-.3-.9.3-.6 1.3.8 14.3-21.7 14.3-24.7s-1.8-4.6-5.2-4.6c-2.3 0-3.4.9-5.8 4.7-1.6 2.7-2.8 5.4-2.5 6.1.3.7.1 1.1-.3.8-.4-.3-4.4 5.7-8.8 13.2-4.4 7.5-8.5 13.6-9 13.5-.5-.2-4.6-1.6-9.1-3.2C231.2 58.3 217 56 201 56c-13.7 0-30.1 1.7-28.2 2.9.6.3-1.1.6-3.6.7-2.7.1-8.6 1.6-14 3.6l-9.3 3.5-3.8-6.6c-2.1-3.6-6.6-11.6-10.1-17.6-3.4-6.1-6.9-11.8-7.8-12.8-1.9-2.1-5.5-2.2-7.6-.1zm31.7 89.2c3.8 4 3.7 9.3-.3 13.3-2.6 2.6-3.5 3-7.9 2.7-2.7-.2-4.8-.5-4.6-.7.3-.2-.5-1.5-1.5-2.9-2.8-3.5-2.6-8.4.6-12.1 2.1-2.6 3.3-3.1 6.8-3.1 3.3 0 4.8.6 6.9 2.8zm117.2-.3c3.2 3.1 3.4 9.1.5 12.7-1 1.4-1.8 2.7-1.6 2.9.3.2-1.5.5-4 .7-7.4.5-12.4-4.9-10.9-11.7 1.5-6.8 11.1-9.6 16-4.6z"/><path fill="#EFEFEF" fill-opacity=".06" d="M113.9 86.7c-1.3 1.6-1.2 1.7.4.4 1.6-1.3 2.1-2.1 1.3-2.1-.2 0-1 .8-1.7 1.7zM298 99.4c0 .2.8 1 1.8 1.7 1.5 1.3 1.6 1.2.3-.4s-2.1-2.1-2.1-1.3z"/><path fill="#ECECEC" fill-opacity=".38" d="m107.4 93.2-1.9 2.3 2.3-1.9c2.1-1.8 2.7-2.6 1.9-2.6-.2 0-1.2 1-2.3 2.2z"/><path fill="#EFEFEF" fill-opacity=".25" d="M191.8 55.7c.7.3 1.6.2 1.9-.1.4-.3-.2-.6-1.3-.5-1.1 0-1.4.3-.6.6zm26 1c.7.3 1.6.2 1.9-.1.4-.3-.2-.6-1.3-.5-1.1 0-1.4.3-.6.6zm-77.5 78c.9.2 2.3.2 3 0 .6-.3-.1-.5-1.8-.5-1.6 0-2.2.2-1.2.5zm117 0c.9.2 2.3.2 3 0 .6-.3-.1-.5-1.8-.5-1.6 0-2.2.2-1.2.5z"/><path fill="#EDEDED" fill-opacity=".5" d="M196.8 55.7c1.7.2 4.7.2 6.5 0 1.7-.2.3-.4-3.3-.4-3.6 0-5 .2-3.2.4z"/></svg>