<svg width="30" height="30" xmlns="http://www.w3.org/2000/svg" version="1.0" viewBox="0 0 600 600"><path fill="#EBEBEB" fill-opacity=".15" d="M202.8 251.7c.7.3 1.6.2 1.9-.1.4-.3-.2-.6-1.3-.5-1.1 0-1.4.3-.6.6z"/><g fill="#FFF" stroke-width="0"><path d="M294.5 137.9c-7.2 1.8-11.7 5.6-15.7 13.1l-2.3 4.5-.5 79.8-.5 79.9-31.1-31-31.1-31-6.1-.7c-5.2-.6-6.9-.4-10.7 1.5-2.4 1.2-5.6 3.5-6.9 5.1-3.4 4-5 12.2-3.6 18.5 1 4.7 2.9 6.7 49.8 53.7 26.8 26.9 50.7 50.3 53.2 52.1 5.5 4.1 9.5 5.1 14.9 3.6 3.6-.9 11-8 56.2-53.3 50.2-50.4 52-52.4 52.9-57 1.1-5.7.5-9.8-2.3-15.6-1.8-3.4-3.3-4.8-7.4-6.7-2.8-1.3-6.4-2.4-7.9-2.4-3.5 0-10.4 2.1-10.4 3.2 0 .4-.6.8-1.3.8-.7 0-14.5 13.3-30.7 29.5S323.2 315 322.8 315c-.4 0-.8-36.1-.8-80.2v-80.1l-2.6-5.1c-3-5.8-9.2-10.4-15.8-11.7-4.8-.9-5.1-.9-9.1 0z"/><path d="M136.1 382.7c-7.7 3.7-8.8 6.7-9.7 26.4-1 21.8-.2 27.2 4.7 34.8 2.4 3.6 5.7 7.2 8.2 8.8 2.3 1.4 4.4 2.9 4.7 3.3.9 1.3 4.8 2.9 9.4 4 3.1.7 51.9 1 146.2 1h141.6l7.8-2.5c4.2-1.5 9.3-4 11.3-5.6 3.9-3.2 9.8-11.5 11.6-16.2.7-1.7 1.1-11.2 1.1-23.4v-20.6l-3.7-4.5c-4.2-5.2-8.4-7.2-14.9-7.2-7.9 0-12.2 1.8-15.7 6.8-2.8 3.9-3.3 5.6-4.3 14.7-1.2 11.4-3.1 15.6-9.2 20.3l-3.5 2.7H177.3l-4.5-3.5c-5.6-4.3-7.8-10.2-7.8-21.3 0-7.4-.1-7.7-4.1-12.4-7.3-8.5-15.2-10.3-24.8-5.6z"/></g><path fill="#ECECEC" fill-opacity=".37" d="M322.4 236c0 10.7.2 15.1.3 9.7.2-5.3.2-14.1 0-19.5-.1-5.3-.3-.9-.3 9.8zm-47.2 15c0 1.4.2 1.9.5 1.2.2-.6.2-1.8 0-2.5-.3-.6-.5-.1-.5 1.3z"/><path fill="#EFEFEF" fill-opacity=".13" d="M456.8 380.7c.7.3 1.6.2 1.9-.1.4-.3-.2-.6-1.3-.5-1.1 0-1.4.3-.6.6z"/><path fill="#E6E6E6" fill-opacity=".04" d="M129.9 385.7c-1.3 1.6-1.2 1.7.4.4 1.6-1.3 2.1-2.1 1.3-2.1-.2 0-1 .8-1.7 1.7z"/><path fill="#EFEFEF" fill-opacity=".19" d="M394.8 251.7c.7.3 1.6.2 1.9-.1.4-.3-.2-.6-1.3-.5-1.1 0-1.4.3-.6.6zM218 257.5c1.3 1.4 2.6 2.5 2.8 2.5.3 0-.5-1.1-1.8-2.5s-2.6-2.5-2.8-2.5c-.3 0 .5 1.1 1.8 2.5z"/><path fill="#EDEDED" fill-opacity=".22" d="M184.2 271c0 1.9.2 2.7.5 1.7.2-.9.2-2.5 0-3.5-.3-.9-.5-.1-.5 1.8z"/><path fill="#DFDFDF" fill-opacity=".03" d="M281.9 143.7c-1.3 1.6-1.2 1.7.4.4 1.6-1.3 2.1-2.1 1.3-2.1-.2 0-1 .8-1.7 1.7z"/><path fill="#ECECEC" fill-opacity=".38" d="M275.1 247.6c0 1.1.3 1.4.6.6.3-.7.2-1.6-.1-1.9-.3-.4-.6.2-.5 1.3zm35.8 135.1c-1.3 1.6-1.2 1.7.4.4 1.6-1.3 2.1-2.1 1.3-2.1-.2 0-1 .8-1.7 1.7z"/><path fill="#FFF" fill-opacity=".01" d="M397.9 296.7c-1.3 1.6-1.2 1.7.4.4 1.6-1.3 2.1-2.1 1.3-2.1-.2 0-1 .8-1.7 1.7z"/><path fill="#F0F0F0" fill-opacity=".2" d="M384.9 308.7c-1.3 1.6-1.2 1.7.4.4 1.6-1.3 2.1-2.1 1.3-2.1-.2 0-1 .8-1.7 1.7zm-19 19-2.4 2.8 2.8-2.4c2.5-2.3 3.2-3.1 2.4-3.1-.2 0-1.4 1.2-2.8 2.7z"/><path fill="#FFF" fill-opacity=".02" d="m366.4 328.2-1.9 2.3 2.3-1.9c2.1-1.8 2.7-2.6 1.9-2.6-.2 0-1.2 1-2.3 2.2z"/><path fill="#EAEAEA" fill-opacity=".38" d="M275.2 241c0 1.4.2 1.9.5 1.2.2-.6.2-1.8 0-2.5-.3-.6-.5-.1-.5 1.3z"/><path fill="#EFEFEF" fill-opacity=".19" d="m397.4 296.2-1.9 2.3 2.3-1.9c2.1-1.8 2.7-2.6 1.9-2.6-.2 0-1.2 1-2.3 2.2zm36.7 99.4c0 1.1.3 1.4.6.6.3-.7.2-1.6-.1-1.9-.3-.4-.6.2-.5 1.3z"/><path fill="#EFEFEF" fill-opacity=".36" d="M322.4 187c0 5.8.1 8.1.3 5.2.2-2.8.2-7.6 0-10.5-.2-2.8-.3-.5-.3 5.3zm0 98c0 5.8.1 8.1.3 5.2.2-2.8.2-7.6 0-10.5-.2-2.8-.3-.5-.3 5.3z"/><path fill="#EFEFEF" fill-opacity=".06" d="M355 282.5c-2.4 2.5-4.2 4.5-3.9 4.5.3 0 2.5-2 4.9-4.5 2.4-2.5 4.2-4.5 3.9-4.5-.3 0-2.5 2-4.9 4.5zm-131 38c20.6 20.6 37.7 37.5 38 37.5.3 0-16.4-16.9-37-37.5S187.3 283 187 283c-.3 0 16.4 16.9 37 37.5zm120.5-27.3-5 5.3 5.3-5c2.8-2.7 5.2-5.1 5.2-5.2 0-.8-.9.1-5.5 4.9zm-81 9.8c2.7 2.7 5.1 5 5.4 5 .3 0-1.7-2.3-4.4-5-2.7-2.8-5.1-5-5.4-5-.3 0 1.7 2.2 4.4 5zm67.4 60.7-2.4 2.8 2.8-2.4c2.5-2.3 3.2-3.1 2.4-3.1-.2 0-1.4 1.2-2.8 2.7z"/><path fill="#ECECEC" fill-opacity=".36" d="M322.4 167.5c0 5.5.1 7.6.3 4.7.2-2.9.2-7.4 0-10-.2-2.6-.3-.2-.3 5.3zm-47.3 93.1c0 1.1.3 1.4.6.6.3-.7.2-1.6-.1-1.9-.3-.4-.6.2-.5 1.3zm47.3 43.9c0 5.5.1 7.6.3 4.7.2-2.9.2-7.4 0-10-.2-2.6-.3-.2-.3 5.3z"/><path fill="#E3E3E3" fill-opacity=".04" d="M188.9 257.7c-1.3 1.6-1.2 1.7.4.4.9-.7 1.7-1.5 1.7-1.7 0-.8-.8-.3-2.1 1.3z"/><path fill="#EAEAEA" fill-opacity=".05" d="M433.1 398.6c0 1.1.3 1.4.6.6.3-.7.2-1.6-.1-1.9-.3-.4-.6.2-.5 1.3z"/><path fill="#EFEFEF" fill-opacity=".37" d="M322.4 207c0 5.8.1 8.1.3 5.2.2-2.8.2-7.6 0-10.5-.2-2.8-.3-.5-.3 5.3zm0 58c0 5.8.1 8.1.3 5.2.2-2.8.2-7.6 0-10.5-.2-2.8-.3-.5-.3 5.3z"/><path fill="#EBEBEB" fill-opacity=".2" d="m405.4 288.2-1.9 2.3 2.3-1.9c1.2-1.1 2.2-2.1 2.2-2.3 0-.8-.8-.2-2.6 1.9z"/><path fill="#EEE" fill-opacity=".35" d="M275.1 270.6c0 1.1.3 1.4.6.6.3-.7.2-1.6-.1-1.9-.3-.4-.6.2-.5 1.3zm-35.9 155.1c32.9.2 86.7.2 119.5 0 32.9-.1 6-.2-59.7-.2s-92.6.1-59.8.2z"/><path fill="#ECECEC" fill-opacity=".36" d="M275.2 264c0 1.4.2 1.9.5 1.2.2-.6.2-1.8 0-2.5-.3-.6-.5-.1-.5 1.3z"/><path fill="#ECECEC" fill-opacity=".37" d="M275.2 256c0 1.9.2 2.7.5 1.7.2-.9.2-2.5 0-3.5-.3-.9-.5-.1-.5 1.8z"/><path fill="#EDEDED" fill-opacity=".38" d="M275.1 244.6c0 1.1.3 1.4.6.6.3-.7.2-1.6-.1-1.9-.3-.4-.6.2-.5 1.3zm82.8 91.1c-1.3 1.6-1.2 1.7.4.4.9-.7 1.7-1.5 1.7-1.7 0-.8-.8-.3-2.1 1.3zm-12 12c-1.3 1.6-1.2 1.7.4.4.9-.7 1.7-1.5 1.7-1.7 0-.8-.8-.3-2.1 1.3z"/><path fill="#EFEFEF" fill-opacity=".25" d="M451.8 380.7c.6.2 1.8.2 2.5 0 .6-.3.1-.5-1.3-.5-1.4 0-1.9.2-1.2.5z"/><path fill="#EBEBEB" fill-opacity=".05" d="M327.9 309.7c-1.3 1.6-1.2 1.7.4.4 1.6-1.3 2.1-2.1 1.3-2.1-.2 0-1 .8-1.7 1.7z"/><path fill="#EDEDED" fill-opacity=".17" d="M165.1 398.6c0 1.1.3 1.4.6.6.3-.7.2-1.6-.1-1.9-.3-.4-.6.2-.5 1.3zm-39.8 10.9c0 4.4.2 6.1.4 3.7.2-2.3.2-5.9 0-8-.2-2-.4-.1-.4 4.3z"/><path fill="#EDEDED" fill-opacity=".05" d="M371.9 265.7c-1.3 1.6-1.2 1.7.4.4 1.6-1.3 2.1-2.1 1.3-2.1-.2 0-1 .8-1.7 1.7z"/><path fill="#EDEDED" fill-opacity=".45" d="M185.1 267.6c0 1.1.3 1.4.6.6.3-.7.2-1.6-.1-1.9-.3-.4-.6.2-.5 1.3z"/><path fill="#EBEBEB" fill-opacity=".36" d="M275.1 267.6c0 1.1.3 1.4.6.6.3-.7.2-1.6-.1-1.9-.3-.4-.6.2-.5 1.3z"/><path fill="#EFEFEF" fill-opacity=".43" d="M413.1 268.6c0 1.1.3 1.4.6.6.3-.7.2-1.6-.1-1.9-.3-.4-.6.2-.5 1.3zm0 7c0 1.1.3 1.4.6.6.3-.7.2-1.6-.1-1.9-.3-.4-.6.2-.5 1.3z"/><path fill="#ECECEC" fill-opacity=".16" d="M414.2 272c0 1.4.2 1.9.5 1.2.2-.6.2-1.8 0-2.5-.3-.6-.5-.1-.5 1.3z"/><path fill="#EBEBEB" fill-opacity=".35" d="M275.2 274c0 1.4.2 1.9.5 1.2.2-.6.2-1.8 0-2.5-.3-.6-.5-.1-.5 1.3z"/><path fill="#EEE" fill-opacity=".29" d="M144.8 379.7c.7.3 1.6.2 1.9-.1.4-.3-.2-.6-1.3-.5-1.1 0-1.4.3-.6.6z"/><path fill="#D5D5D5" fill-opacity=".02" d="M405.9 288.7c-1.3 1.6-1.2 1.7.4.4 1.6-1.3 2.1-2.1 1.3-2.1-.2 0-1 .8-1.7 1.7z"/><path fill="#FFF" fill-opacity=".01" d="m352.4 342.2-2.9 3.3 3.3-2.9c1.7-1.7 3.2-3.1 3.2-3.3 0-.8-.8-.1-3.6 2.9z"/><path fill="#F0F0F0" fill-opacity=".2" d="m354.4 339.2-1.9 2.3 2.3-1.9c1.2-1.1 2.2-2.1 2.2-2.3 0-.8-.8-.2-2.6 1.9zm-5 5-1.9 2.3 2.3-1.9c1.2-1.1 2.2-2.1 2.2-2.3 0-.8-.8-.2-2.6 1.9z"/><path fill="#F3F3F3" fill-opacity=".08" d="M125.2 399.5c0 1.6.2 2.2.5 1.2.2-.9.2-2.3 0-3-.3-.6-.5.1-.5 1.8zm0 20.5c0 1.9.2 2.7.5 1.7.2-.9.2-2.5 0-3.5-.3-.9-.5-.1-.5 1.8z"/><path fill="#EDEDED" fill-opacity=".34" d="M165.2 403.5c0 1.6.2 2.2.5 1.2.2-.9.2-2.3 0-3-.3-.6-.5.1-.5 1.8z"/><path fill="#F4F4F4" fill-opacity=".09" d="M433.2 403.5c0 1.6.2 2.2.5 1.2.2-.9.2-2.3 0-3-.3-.6-.5.1-.5 1.8z"/></svg>