<svg width="30" height="30" xmlns="http://www.w3.org/2000/svg" version="1.0" viewBox="0 0 360 360"><path fill="#979797" fill-opacity=".25" d="M141.8 67.7c16.1.2 42.2.2 58 0 15.8-.1 2.6-.2-29.3-.2-31.9 0-44.8.1-28.7.2zm85 48c.7.3 1.6.2 1.9-.1.4-.3-.2-.6-1.3-.5-1.1 0-1.4.3-.6.6zm-150 26c.6.2 1.8.2 2.5 0 .6-.3.1-.5-1.3-.5-1.4 0-1.9.2-1.2.5zm210 0c.7.3 1.6.2 1.9-.1.4-.3-.2-.6-1.3-.5-1.1 0-1.4.3-.6.6zm-148.5 11c22.9.2 60.5.2 83.5 0 22.9-.1 4.1-.2-41.8-.2s-64.7.1-41.7.2zm78.5 46c.7.3 1.6.2 1.9-.1.4-.3-.2-.6-1.3-.5-1.1 0-1.4.3-.6.6zm-73.6 38c21.9.2 57.7.2 79.5 0 21.9-.1 4-.2-39.7-.2s-61.6.1-39.8.2zm-63.9 56c1.5.2 3.7.2 5 0 1.2-.2 0-.4-2.8-.4-2.7 0-3.8.2-2.2.4zm10.5 18c1.7.2 4.7.2 6.5 0 1.7-.2.3-.4-3.3-.4-3.6 0-5 .2-3.2.4zm16 0c1.7.2 4.7.2 6.5 0 1.7-.2.3-.4-3.3-.4-3.6 0-5 .2-3.2.4zm15.9 0c1.8.2 5 .2 7 0 2.1-.2.7-.4-3.2-.4-3.8 0-5.5.2-3.8.4zm17.1 0c1.7.2 4.7.2 6.5 0 1.7-.2.3-.4-3.3-.4-3.6 0-5 .2-3.2.4zm17 0c1.7.2 4.7.2 6.5 0 1.7-.2.3-.4-3.3-.4-3.6 0-5 .2-3.2.4zm119.9 0c1.8.2 5 .2 7 0 2.1-.2.7-.4-3.2-.4-3.8 0-5.5.2-3.8.4z"/><path fill="#989898" fill-opacity=".2" d="M311.1 114.6c0 1.1.3 1.4.6.6.3-.7.2-1.6-.1-1.9-.3-.4-.6.2-.5 1.3z"/><path fill="#999" d="M60.3 70.1c-5 2.4-8.7 7-10.2 12.4-.6 2.3-1.1 12.4-1.1 23.4 0 18.8.1 19.5 2.7 25.3 1.7 3.9 3.6 6.4 5.5 7.4 1.7.9 8.3 1.8 17.5 2.4 18.9 1.2 201.5 1.2 215 0 13.2-1.2 15.3-2.3 18.8-10.1l2.7-6.2-.4-21.1c-.4-24.3-1.2-26.9-8.6-32.1l-4.4-3-116.6-.3C64.5 68 64.5 68 60.3 70.1zM86 98.9c0 7-.3 15.6-.6 19l-.7 6.1H77v-18.4c0-19.9-.2-19.4 5.8-19.5L86 86v12.9zm26.8-12.3c2.2.6 2.2.9 2.2 16.5 0 19.2-.5 20.9-6 20.9h-4v-18.4c0-13.8.3-18.6 1.3-18.9 1.7-.8 3.9-.8 6.5-.1zm28.6 0c1.4.5 1.6 2.9 1.6 16.4 0 19.3-.5 21-6 21h-4v-18.3c0-10.1.3-18.7.7-19 .8-.9 5.6-.9 7.7-.1zm91.1 9.6c3.4 2.7 5.3 6.9 4.7 10.8-.5 3.4-6.2 9-9.3 9-5.9 0-11.9-5.5-11.9-11 0-3.3 2.8-7.8 5.8-9.4 3.9-2.1 7.5-1.9 10.7.6zm35.9-.8c4.3 1.8 6.6 5.1 6.6 9.6s-2.3 7.8-6.6 9.6c-4.4 1.9-8.9.8-11.9-2.8-4.6-5.5-2.7-13.5 3.9-16.4 3.9-1.7 4-1.7 8 0zM62.2 154c-4.7 1.1-9.9 6.5-11.8 12.2-1.3 4-1.5 8.5-1.2 25.6.3 19.9.4 20.9 2.8 25 1.4 2.4 3.8 5.1 5.3 5.9 1.6.8 8 1.8 14.5 2.3 15.6 1.3 206 1.2 218.4 0 11.7-1.1 14.5-2.4 17.8-8.2 2.3-4.1 2.5-5.2 2.8-25 .4-17.1.1-21.4-1.2-25.5-2-6.1-7.1-11.2-12.2-12.4-4.8-1.1-230.6-1-235.2.1zm21.7 16.9c1.1.7 1.5 5 1.9 19.7l.5 18.7-3.3-.6c-1.8-.4-3.9-.7-4.6-.7-1.9 0-2.1-36.6-.1-37.3 1.9-.8 4.1-.7 5.6.2zm29.2.1c1.8 1 1.9 2.3 1.9 16.8 0 20.2 0 20.2-5.6 20.2H105v-18.4c0-13.8.3-18.6 1.3-18.9 2.1-.9 4.7-.7 6.8.3zm27.7-.4c2.2.6 2.2.8 2.2 19V208h-10v-18.4c0-13.8.3-18.6 1.3-18.9 1.7-.8 3.9-.8 6.5-.1zM283 189.5v9.6l-36.5-.3c-28.2-.2-36.7-.6-37.7-1.6-1.8-1.8-1.7-13.4.1-15.5 1.2-1.5 5.1-1.7 37.7-1.7H283v9.5zM63.7 237.9c-5.2 1.1-8.7 3.9-12 9.7l-2.8 4.9.3 22c.4 25.1.9 27.2 8 32.2l4.1 2.8 74.1.8c81.5.9 157.2.3 162.5-1.3 1.9-.5 4.8-2.2 6.4-3.7 5.8-5.6 6.1-6.9 6.5-30.3l.4-21.5-3.4-6.4c-2.8-5.5-3.9-6.7-7.3-8-3.5-1.4-18.3-1.6-118.5-1.7-63-.1-116.2.1-118.3.5zm20.2 17.5c.7.9 1.4 8.2 1.8 19.5l.6 18.1H77v-17.6c0-10.2.4-18.3 1-19.5 1.2-2.2 4.3-2.5 5.9-.5zm29.5.2c1.3 1.3 1.6 4.5 1.6 19V292h-10v-17.1c0-9.8.4-17.8 1-19 1.3-2.3 5.3-2.5 7.4-.3zm28 0c1.3 1.3 1.6 4.5 1.6 19V292h-10v-17.1c0-9.8.4-17.8 1-19 1.3-2.3 5.3-2.5 7.4-.3zM272.3 267c3.1 3.5 3.5 7.5 1.2 12-.8 1.6-2.4 3.4-3.4 4-4.5 2.4-12.9.2-15.1-3.9-1.5-2.9-1.2-9.3.5-11.9 3.5-4.9 12.4-5 16.8-.2zm-38-1.2c4.5 4.9 4.1 11.6-.9 16.3-4 3.7-9.5 3.3-13.8-1.1-1.9-1.9-3.5-4.2-3.6-5-.5-3.7.2-6.1 2.6-8.9 2.3-2.8 3.1-3.1 8.3-3.1 4.2 0 6.2.5 7.4 1.8z"/><path fill="#9A9A9A" fill-opacity=".35" d="M48.2 104c0 1.4.2 1.9.5 1.2.2-.6.2-1.8 0-2.5-.3-.6-.5-.1-.5 1.3z"/><path fill="#999" fill-opacity=".33" d="M142.3 184.5c0 2.2.2 3 .4 1.7.2-1.2.2-3 0-4-.3-.9-.5.1-.4 2.3zm140 0c0 2.2.2 3 .4 1.7.2-1.2.2-3 0-4-.3-.9-.5.1-.4 2.3zm-140 9.5c0 2.5.2 3.5.4 2.2.2-1.2.2-3.2 0-4.5-.2-1.2-.4-.2-.4 2.3zm140 0c0 2.5.2 3.5.4 2.2.2-1.2.2-3.2 0-4.5-.2-1.2-.4-.2-.4 2.3z"/><path fill="#979797" fill-opacity=".13" d="M311.1 179.6c0 1.1.3 1.4.6.6.3-.7.2-1.6-.1-1.9-.3-.4-.6.2-.5 1.3z"/></svg>