<svg width="30" height="30" xmlns="http://www.w3.org/2000/svg" version="1.0" viewBox="0 0 500 500"><path fill="#F0F0F0" fill-opacity=".07" d="M199.8 93.7c.7.3 1.6.2 1.9-.1.4-.3-.2-.6-1.3-.5-1.1 0-1.4.3-.6.6z"/><path fill="#F4F4F4" fill-opacity=".09" d="M237.1 161.6c0 1.1.3 1.4.6.6.3-.7.2-1.6-.1-1.9-.3-.4-.6.2-.5 1.3z"/><path fill="#F5F5F5" fill-opacity=".1" d="M227 93.7c5.9.2 9.8.8 10.3 1.6.6.9.7.8.4-.3-.3-1.2-2.3-1.5-10.3-1.6h-9.9l9.5.3zm10.1 62.9c0 1.1.3 1.4.6.6.3-.7.2-1.6-.1-1.9-.3-.4-.6.2-.5 1.3z"/><path fill="#EFEFEF" fill-opacity=".24" d="M262.7 93.7c-.3.5 2.7.7 6.6.5 12.2-.4 13.6-.9 3.5-1-5.3-.1-9.9.1-10.1.5z"/><path fill="#EDEDED" fill-opacity=".22" d="M237.1 384.6c0 1.1.3 1.4.6.6.3-.7.2-1.6-.1-1.9-.3-.4-.6.2-.5 1.3zm0-28c0 1.1.3 1.4.6.6.3-.7.2-1.6-.1-1.9-.3-.4-.6.2-.5 1.3zm0 31c0 1.1.3 1.4.6.6.3-.7.2-1.6-.1-1.9-.3-.4-.6.2-.5 1.3z"/><path fill="#ECECEC" fill-opacity=".22" d="M237.1 391.6c0 1.1.3 1.4.6.6.3-.7.2-1.6-.1-1.9-.3-.4-.6.2-.5 1.3z"/><path fill="#ECECEC" fill-opacity=".21" d="M237.1 347.6c0 1.1.3 1.4.6.6.3-.7.2-1.6-.1-1.9-.3-.4-.6.2-.5 1.3zm0 52c0 1.1.3 1.4.6.6.3-.7.2-1.6-.1-1.9-.3-.4-.6.2-.5 1.3z"/><path fill="#EEE" fill-opacity=".12" d="M237.2 124.5c0 1.6.2 2.2.5 1.2.2-.9.2-2.3 0-3-.3-.6-.5.1-.5 1.8zm0 8.5c0 1.4.2 1.9.5 1.2.2-.6.2-1.8 0-2.5-.3-.6-.5-.1-.5 1.3z"/><path fill="#ECECEC" fill-opacity=".11" d="M237.2 104c0 1.4.2 1.9.5 1.2.2-.6.2-1.8 0-2.5-.3-.6-.5-.1-.5 1.3zm-.1 44.6c0 1.1.3 1.4.6.6.3-.7.2-1.6-.1-1.9-.3-.4-.6.2-.5 1.3z"/><path fill="#FFF" d="M150.4 95.1c-20.6 1.5-30.8 5.1-40 14.3-6.2 6.3-9.6 12.6-12.4 23.2-3.2 12.3-4 27.2-3.8 66.9l.3 37h142v-142l-37.5-.1c-20.6-.1-42.5.2-48.6.7zm112.8 70.1.3 71.3 70.3.2c62.9.3 70.3.1 70.9-1.3.3-.8.1-22.1-.5-47.2-1-43.1-1.2-46.2-3.5-54.7-4.6-17.7-12.2-27.2-26.2-33.1-11.2-4.7-31.7-6.4-75.8-6.4H263l.2 71.2zm-120.6 97.5-48.8.3.6 40.3c.8 53.8 2.1 64.6 9.1 77.2 6.2 11.1 14.8 17.1 30.1 20.8 12.8 3.2 12.6 3.2 61.4 3.2h41.5l.3-69c.1-38 0-70-.3-71.3l-.5-2.2-22.3.2c-12.2.2-44.2.4-71.1.5zm121.1 0c-.4.3-.7 32.6-.7 71.6v71l44.8-.6c39.8-.5 45.7-.8 54-2.6 18.9-4.1 29.3-11.6 35-25.3 5.6-13.4 6.1-18.4 7.4-66.9.6-24.6.8-45.4.5-46.3-.6-1.4-7.4-1.6-70.5-1.6-38.4 0-70.2.3-70.5.7z"/><path fill="#ECECEC" fill-opacity=".26" d="M262.1 157.6c0 1.1.3 1.4.6.6.3-.7.2-1.6-.1-1.9-.3-.4-.6.2-.5 1.3zm0 235c0 1.1.3 1.4.6.6.3-.7.2-1.6-.1-1.9-.3-.4-.6.2-.5 1.3z"/><path fill="#EEE" fill-opacity=".24" d="M237.1 368.6c0 1.1.3 1.4.6.6.3-.7.2-1.6-.1-1.9-.3-.4-.6.2-.5 1.3zm0 4c0 1.1.3 1.4.6.6.3-.7.2-1.6-.1-1.9-.3-.4-.6.2-.5 1.3zm30.2 33.1c2.6.2 6.8.2 9.5 0 2.6-.2.4-.3-4.8-.3s-7.4.1-4.7.3z"/><path fill="#EBEBEB" fill-opacity=".1" d="M237.2 98c0 1.4.2 1.9.5 1.2.2-.6.2-1.8 0-2.5-.3-.6-.5-.1-.5 1.3zm-.1 55.6c0 1.1.3 1.4.6.6.3-.7.2-1.6-.1-1.9-.3-.4-.6.2-.5 1.3z"/><path fill="#EDEDED" fill-opacity=".5" d="M116.8 262.7c12.7.2 33.7.2 46.5 0 12.7-.1 2.3-.2-23.3-.2s-36 .1-23.2.2z"/><path fill="#EBEBEB" fill-opacity=".25" d="M262.1 397.6c0 1.1.3 1.4.6.6.3-.7.2-1.6-.1-1.9-.3-.4-.6.2-.5 1.3z"/><path fill="#EFEFEF" fill-opacity=".25" d="M262.1 161.6c0 1.1.3 1.4.6.6.3-.7.2-1.6-.1-1.9-.3-.4-.6.2-.5 1.3z"/><path fill="#ECECEC" fill-opacity=".26" d="M262.1 347.6c0 1.1.3 1.4.6.6.3-.7.2-1.6-.1-1.9-.3-.4-.6.2-.5 1.3z"/><path fill="#EDEDED" fill-opacity=".27" d="M262.1 152.6c0 1.1.3 1.4.6.6.3-.7.2-1.6-.1-1.9-.3-.4-.6.2-.5 1.3z"/><path fill="#F6F6F6" fill-opacity=".11" d="M237.1 107.6c0 1.1.3 1.4.6.6.3-.7.2-1.6-.1-1.9-.3-.4-.6.2-.5 1.3z"/><path fill="#FFF" fill-opacity=".04" d="M108.9 109.7c-1.3 1.6-1.2 1.7.4.4.9-.7 1.7-1.5 1.7-1.7 0-.8-.8-.3-2.1 1.3z"/><path fill="#EDEDED" fill-opacity=".11" d="M237.2 111c0 1.4.2 1.9.5 1.2.2-.6.2-1.8 0-2.5-.3-.6-.5-.1-.5 1.3zm-.1 32.6c0 1.1.3 1.4.6.6.3-.7.2-1.6-.1-1.9-.3-.4-.6.2-.5 1.3z"/><path fill="#EDEDED" fill-opacity=".27" d="M262.1 357.6c0 1.1.3 1.4.6.6.3-.7.2-1.6-.1-1.9-.3-.4-.6.2-.5 1.3zm0 26c0 1.1.3 1.4.6.6.3-.7.2-1.6-.1-1.9-.3-.4-.6.2-.5 1.3z"/><path fill="#EDEDED" fill-opacity=".28" d="M262.1 113.6c0 1.1.3 1.4.6.6.3-.7.2-1.6-.1-1.9-.3-.4-.6.2-.5 1.3zm0 34c0 1.1.3 1.4.6.6.3-.7.2-1.6-.1-1.9-.3-.4-.6.2-.5 1.3z"/><path fill="#EDEDED" fill-opacity=".11" d="M237.2 117.5c0 1.6.2 2.2.5 1.2.2-.9.2-2.3 0-3-.3-.6-.5.1-.5 1.8zm0 20.5c0 1.4.2 1.9.5 1.2.2-.6.2-1.8 0-2.5-.3-.6-.5-.1-.5 1.3z"/><path fill="#EDEDED" fill-opacity=".28" d="M262.1 144.6c0 1.1.3 1.4.6.6.3-.7.2-1.6-.1-1.9-.3-.4-.6.2-.5 1.3z"/><path fill="#F0F0F0" fill-opacity=".2" d="m226.5 405-11 .6 10.7.2c6.3.1 10.9-.2 11.3-.8.3-.6.5-.9.3-.8-.2.1-5.2.5-11.3.8z"/><path fill="#EDEDED" fill-opacity=".23" d="M237.1 379.6c0 1.1.3 1.4.6.6.3-.7.2-1.6-.1-1.9-.3-.4-.6.2-.5 1.3z"/><path fill="#EEE" fill-opacity=".23" d="M237.2 365c0 1.4.2 1.9.5 1.2.2-.6.2-1.8 0-2.5-.3-.6-.5-.1-.5 1.3zm0 11c0 1.4.2 1.9.5 1.2.2-.6.2-1.8 0-2.5-.3-.6-.5-.1-.5 1.3z"/></svg>